<mxfile host="drawio-plugin" modified="2022-07-18T19:16:50.569Z" agent="5.0 (Macintosh; Intel Mac OS X 10_16_0) AppleWebKit/537.36 (KHTML, like Gecko) Chrome/84.0.4147.105 Safari/537.36" etag="y1IACYR6sn6lq5DaFwE_" version="14.7.4" type="embed"><diagram id="EvyPU51vlMHeTocWz-lV" name="Page-1"><mxGraphModel dx="799" dy="1818" grid="1" gridSize="10" guides="1" tooltips="1" connect="1" arrows="1" fold="1" page="1" pageScale="1" pageWidth="827" pageHeight="1169" math="0" shadow="0"><root><mxCell id="0"/><mxCell id="1" parent="0"/><mxCell id="q7m_-4qv0E5tmTCm9oEU-14" value="&lt;font style=&quot;font-size: 14px&quot; color=&quot;#000000&quot;&gt;Produtos&lt;/font&gt;" style="rounded=0;whiteSpace=wrap;html=1;fillColor=#fff2cc;strokeColor=#d6b656;" parent="1" vertex="1"><mxGeometry x="790" y="40" width="120" height="60" as="geometry"/></mxCell><mxCell id="q7m_-4qv0E5tmTCm9oEU-19" value="" style="edgeStyle=orthogonalEdgeStyle;rounded=0;orthogonalLoop=1;jettySize=auto;html=1;" parent="1" source="q7m_-4qv0E5tmTCm9oEU-15" target="q7m_-4qv0E5tmTCm9oEU-18" edge="1"><mxGeometry relative="1" as="geometry"/></mxCell><mxCell id="q7m_-4qv0E5tmTCm9oEU-15" value="&lt;font style=&quot;font-size: 14px&quot; color=&quot;#000000&quot;&gt;Clientes&lt;/font&gt;" style="rounded=0;whiteSpace=wrap;html=1;fillColor=#fff2cc;strokeColor=#d6b656;" parent="1" vertex="1"><mxGeometry x="80" y="40" width="120" height="60" as="geometry"/></mxCell><mxCell id="q7m_-4qv0E5tmTCm9oEU-16" value="&lt;font style=&quot;font-size: 14px&quot; color=&quot;#000000&quot;&gt;Vendas&lt;/font&gt;" style="rounded=0;whiteSpace=wrap;html=1;fillColor=#fff2cc;strokeColor=#d6b656;" parent="1" vertex="1"><mxGeometry x="400" y="40" width="120" height="60" as="geometry"/></mxCell><mxCell id="q7m_-4qv0E5tmTCm9oEU-21" value="" style="edgeStyle=orthogonalEdgeStyle;rounded=0;orthogonalLoop=1;jettySize=auto;html=1;" parent="1" source="q7m_-4qv0E5tmTCm9oEU-18" target="q7m_-4qv0E5tmTCm9oEU-16" edge="1"><mxGeometry relative="1" as="geometry"/></mxCell><mxCell id="q7m_-4qv0E5tmTCm9oEU-18" value="&lt;font color=&quot;#000000&quot;&gt;realiza&lt;/font&gt;" style="rhombus;whiteSpace=wrap;html=1;fillColor=#dae8fc;strokeColor=#6c8ebf;" parent="1" vertex="1"><mxGeometry x="260" y="45" width="90" height="50" as="geometry"/></mxCell><mxCell id="q7m_-4qv0E5tmTCm9oEU-20" value="&lt;b&gt;1&lt;/b&gt;" style="text;html=1;align=center;verticalAlign=middle;resizable=0;points=[];autosize=1;strokeColor=none;fillColor=none;" parent="1" vertex="1"><mxGeometry x="190" y="40" width="30" height="30" as="geometry"/></mxCell><mxCell id="q7m_-4qv0E5tmTCm9oEU-22" value="&lt;b&gt;N&lt;/b&gt;" style="text;html=1;align=center;verticalAlign=middle;resizable=0;points=[];autosize=1;strokeColor=none;fillColor=none;" parent="1" vertex="1"><mxGeometry x="370" y="40" width="30" height="30" as="geometry"/></mxCell><mxCell id="q7m_-4qv0E5tmTCm9oEU-23" value="&lt;b&gt;&lt;u&gt;id_cliente&lt;/u&gt;&lt;/b&gt;" style="rounded=1;whiteSpace=wrap;html=1;arcSize=40;fillColor=#f5f5f5;fontColor=#333333;strokeColor=#666666;" parent="1" vertex="1"><mxGeometry x="10" y="160" width="70" height="30" as="geometry"/></mxCell><mxCell id="q7m_-4qv0E5tmTCm9oEU-24" value="data_venda" style="rounded=1;whiteSpace=wrap;html=1;arcSize=45;fillColor=#f5f5f5;fontColor=#333333;strokeColor=#666666;" parent="1" vertex="1"><mxGeometry x="480" y="150" width="80" height="40" as="geometry"/></mxCell><mxCell id="q7m_-4qv0E5tmTCm9oEU-25" value="&lt;b&gt;&lt;u&gt;id_venda&lt;/u&gt;&lt;/b&gt;" style="rounded=1;whiteSpace=wrap;html=1;arcSize=48;fillColor=#f5f5f5;fontColor=#333333;strokeColor=#666666;" parent="1" vertex="1"><mxGeometry x="379" y="150" width="70" height="40" as="geometry"/></mxCell><mxCell id="q7m_-4qv0E5tmTCm9oEU-26" value="sobrenome" style="rounded=1;whiteSpace=wrap;html=1;arcSize=46;fillColor=#f5f5f5;fontColor=#333333;strokeColor=#666666;" parent="1" vertex="1"><mxGeometry x="180" y="160" width="70" height="35" as="geometry"/></mxCell><mxCell id="q7m_-4qv0E5tmTCm9oEU-27" value="nome" style="rounded=1;whiteSpace=wrap;html=1;arcSize=43;fillColor=#f5f5f5;fontColor=#333333;strokeColor=#666666;" parent="1" vertex="1"><mxGeometry x="100" y="160" width="60" height="30" as="geometry"/></mxCell><mxCell id="q7m_-4qv0E5tmTCm9oEU-31" value="" style="endArrow=classic;html=1;rounded=0;entryX=0.167;entryY=0.983;entryDx=0;entryDy=0;entryPerimeter=0;" parent="1" target="q7m_-4qv0E5tmTCm9oEU-15" edge="1"><mxGeometry width="50" height="50" relative="1" as="geometry"><mxPoint x="40" y="160" as="sourcePoint"/><mxPoint x="90" y="110" as="targetPoint"/></mxGeometry></mxCell><mxCell id="q7m_-4qv0E5tmTCm9oEU-32" value="" style="endArrow=classic;html=1;rounded=0;entryX=0.5;entryY=1;entryDx=0;entryDy=0;" parent="1" target="q7m_-4qv0E5tmTCm9oEU-15" edge="1"><mxGeometry width="50" height="50" relative="1" as="geometry"><mxPoint x="130" y="160" as="sourcePoint"/><mxPoint x="180" y="110" as="targetPoint"/></mxGeometry></mxCell><mxCell id="q7m_-4qv0E5tmTCm9oEU-33" value="" style="endArrow=classic;html=1;rounded=0;entryX=0.858;entryY=1.017;entryDx=0;entryDy=0;entryPerimeter=0;" parent="1" target="q7m_-4qv0E5tmTCm9oEU-15" edge="1"><mxGeometry width="50" height="50" relative="1" as="geometry"><mxPoint x="210" y="160" as="sourcePoint"/><mxPoint x="260" y="110" as="targetPoint"/></mxGeometry></mxCell><mxCell id="q7m_-4qv0E5tmTCm9oEU-34" value="" style="endArrow=classic;html=1;rounded=0;entryX=0.333;entryY=1.058;entryDx=0;entryDy=0;entryPerimeter=0;exitX=0.5;exitY=0;exitDx=0;exitDy=0;" parent="1" source="q7m_-4qv0E5tmTCm9oEU-25" target="q7m_-4qv0E5tmTCm9oEU-16" edge="1"><mxGeometry width="50" height="50" relative="1" as="geometry"><mxPoint x="360" y="150" as="sourcePoint"/><mxPoint x="439" y="100" as="targetPoint"/></mxGeometry></mxCell><mxCell id="q7m_-4qv0E5tmTCm9oEU-38" value="&lt;font color=&quot;#000000&quot;&gt;tem&lt;/font&gt;" style="rhombus;whiteSpace=wrap;html=1;fillColor=#dae8fc;strokeColor=#6c8ebf;" parent="1" vertex="1"><mxGeometry x="610" y="45" width="90" height="50" as="geometry"/></mxCell><mxCell id="q7m_-4qv0E5tmTCm9oEU-41" value="" style="endArrow=none;html=1;rounded=0;fontSize=14;entryX=0;entryY=0.5;entryDx=0;entryDy=0;" parent="1" target="q7m_-4qv0E5tmTCm9oEU-38" edge="1"><mxGeometry width="50" height="50" relative="1" as="geometry"><mxPoint x="520" y="70" as="sourcePoint"/><mxPoint x="570" y="20" as="targetPoint"/></mxGeometry></mxCell><mxCell id="q7m_-4qv0E5tmTCm9oEU-42" value="" style="endArrow=none;html=1;rounded=0;fontSize=14;entryX=0;entryY=0.5;entryDx=0;entryDy=0;" parent="1" edge="1"><mxGeometry width="50" height="50" relative="1" as="geometry"><mxPoint x="700" y="70" as="sourcePoint"/><mxPoint x="790" y="70" as="targetPoint"/></mxGeometry></mxCell><mxCell id="q7m_-4qv0E5tmTCm9oEU-43" value="&lt;font style=&quot;font-size: 12px;&quot;&gt;&lt;b&gt;N&lt;/b&gt;&lt;/font&gt;" style="text;html=1;align=center;verticalAlign=middle;resizable=0;points=[];autosize=1;strokeColor=none;fillColor=none;fontSize=14;" parent="1" vertex="1"><mxGeometry x="520" y="40" width="30" height="30" as="geometry"/></mxCell><mxCell id="q7m_-4qv0E5tmTCm9oEU-44" value="&lt;font style=&quot;font-size: 12px;&quot;&gt;&lt;b&gt;N&lt;/b&gt;&lt;/font&gt;" style="text;html=1;align=center;verticalAlign=middle;resizable=0;points=[];autosize=1;strokeColor=none;fillColor=none;fontSize=14;" parent="1" vertex="1"><mxGeometry x="760" y="40" width="30" height="30" as="geometry"/></mxCell><mxCell id="q7m_-4qv0E5tmTCm9oEU-45" value="quantidade" style="rounded=1;whiteSpace=wrap;html=1;arcSize=45;fillColor=#f5f5f5;fontColor=#333333;strokeColor=#666666;" parent="1" vertex="1"><mxGeometry x="870" y="170" width="80" height="40" as="geometry"/></mxCell><mxCell id="q7m_-4qv0E5tmTCm9oEU-46" value="&lt;b&gt;&lt;u&gt;codigo_produto&lt;/u&gt;&lt;/b&gt;" style="rounded=1;whiteSpace=wrap;html=1;arcSize=45;fillColor=#f5f5f5;fontColor=#333333;strokeColor=#666666;" parent="1" vertex="1"><mxGeometry x="680" y="130" width="100" height="40" as="geometry"/></mxCell><mxCell id="q7m_-4qv0E5tmTCm9oEU-47" value="nome" style="rounded=1;whiteSpace=wrap;html=1;arcSize=45;fillColor=#f5f5f5;fontColor=#333333;strokeColor=#666666;" parent="1" vertex="1"><mxGeometry x="800" y="160" width="50" height="40" as="geometry"/></mxCell><mxCell id="q7m_-4qv0E5tmTCm9oEU-48" value="preço" style="rounded=1;whiteSpace=wrap;html=1;arcSize=45;fillColor=#f5f5f5;fontColor=#333333;strokeColor=#666666;" parent="1" vertex="1"><mxGeometry x="940" y="120" width="60" height="35" as="geometry"/></mxCell><mxCell id="q7m_-4qv0E5tmTCm9oEU-49" value="" style="endArrow=classic;html=1;rounded=0;fontSize=14;entryX=0;entryY=1;entryDx=0;entryDy=0;" parent="1" target="q7m_-4qv0E5tmTCm9oEU-14" edge="1"><mxGeometry width="50" height="50" relative="1" as="geometry"><mxPoint x="740" y="130" as="sourcePoint"/><mxPoint x="790" y="80" as="targetPoint"/></mxGeometry></mxCell><mxCell id="q7m_-4qv0E5tmTCm9oEU-50" value="" style="endArrow=classic;html=1;rounded=0;fontSize=14;entryX=0.367;entryY=1.025;entryDx=0;entryDy=0;entryPerimeter=0;" parent="1" target="q7m_-4qv0E5tmTCm9oEU-14" edge="1"><mxGeometry width="50" height="50" relative="1" as="geometry"><mxPoint x="827" y="160" as="sourcePoint"/><mxPoint x="877" y="110" as="targetPoint"/></mxGeometry></mxCell><mxCell id="q7m_-4qv0E5tmTCm9oEU-51" value="" style="endArrow=classic;html=1;rounded=0;fontSize=14;entryX=0.667;entryY=1.025;entryDx=0;entryDy=0;entryPerimeter=0;" parent="1" target="q7m_-4qv0E5tmTCm9oEU-14" edge="1"><mxGeometry width="50" height="50" relative="1" as="geometry"><mxPoint x="910" y="170" as="sourcePoint"/><mxPoint x="960" y="120" as="targetPoint"/></mxGeometry></mxCell><mxCell id="q7m_-4qv0E5tmTCm9oEU-52" value="" style="endArrow=classic;html=1;rounded=0;fontSize=14;entryX=1;entryY=1;entryDx=0;entryDy=0;" parent="1" target="q7m_-4qv0E5tmTCm9oEU-14" edge="1"><mxGeometry width="50" height="50" relative="1" as="geometry"><mxPoint x="970" y="120" as="sourcePoint"/><mxPoint x="1020" y="70" as="targetPoint"/></mxGeometry></mxCell><mxCell id="q7m_-4qv0E5tmTCm9oEU-53" value="" style="endArrow=classic;html=1;rounded=0;fontSize=14;entryX=0.808;entryY=1.058;entryDx=0;entryDy=0;entryPerimeter=0;" parent="1" target="q7m_-4qv0E5tmTCm9oEU-16" edge="1"><mxGeometry width="50" height="50" relative="1" as="geometry"><mxPoint x="520" y="150" as="sourcePoint"/><mxPoint x="570" y="100" as="targetPoint"/></mxGeometry></mxCell><mxCell id="q7m_-4qv0E5tmTCm9oEU-55" value="&lt;b&gt;&lt;u&gt;id_venda&lt;/u&gt;&lt;/b&gt;" style="rounded=1;whiteSpace=wrap;html=1;arcSize=45;fillColor=#f5f5f5;fontColor=#333333;strokeColor=#666666;" parent="1" vertex="1"><mxGeometry x="520" y="-60" width="80" height="40" as="geometry"/></mxCell><mxCell id="q7m_-4qv0E5tmTCm9oEU-56" value="&lt;b&gt;&lt;u&gt;codigo_produto&lt;/u&gt;&lt;/b&gt;" style="rounded=1;whiteSpace=wrap;html=1;arcSize=45;fillColor=#f5f5f5;fontColor=#333333;strokeColor=#666666;" parent="1" vertex="1"><mxGeometry x="620" y="-60" width="100" height="40" as="geometry"/></mxCell><mxCell id="q7m_-4qv0E5tmTCm9oEU-57" value="quantidade" style="rounded=1;whiteSpace=wrap;html=1;arcSize=45;fillColor=#f5f5f5;fontColor=#333333;strokeColor=#666666;" parent="1" vertex="1"><mxGeometry x="735" y="-60" width="80" height="40" as="geometry"/></mxCell><mxCell id="q7m_-4qv0E5tmTCm9oEU-58" value="" style="endArrow=classic;html=1;rounded=0;fontSize=14;entryX=0;entryY=0;entryDx=0;entryDy=0;" parent="1" target="q7m_-4qv0E5tmTCm9oEU-38" edge="1"><mxGeometry width="50" height="50" relative="1" as="geometry"><mxPoint x="560" y="-20" as="sourcePoint"/><mxPoint x="610" y="-70" as="targetPoint"/></mxGeometry></mxCell><mxCell id="q7m_-4qv0E5tmTCm9oEU-59" value="" style="endArrow=classic;html=1;rounded=0;fontSize=14;entryX=0.5;entryY=0;entryDx=0;entryDy=0;" parent="1" target="q7m_-4qv0E5tmTCm9oEU-38" edge="1"><mxGeometry width="50" height="50" relative="1" as="geometry"><mxPoint x="670" y="-20" as="sourcePoint"/><mxPoint x="720" y="-70" as="targetPoint"/></mxGeometry></mxCell><mxCell id="q7m_-4qv0E5tmTCm9oEU-60" value="" style="endArrow=classic;html=1;rounded=0;fontSize=14;" parent="1" target="q7m_-4qv0E5tmTCm9oEU-38" edge="1"><mxGeometry width="50" height="50" relative="1" as="geometry"><mxPoint x="777" y="-20" as="sourcePoint"/><mxPoint x="827" y="-70" as="targetPoint"/></mxGeometry></mxCell></root></mxGraphModel></diagram></mxfile>